<?xml version="1.0" encoding="UTF-8" standalone="no"?>
<svg
   xmlns:dc="http://purl.org/dc/elements/1.1/"
   xmlns:cc="http://creativecommons.org/ns#"
   xmlns:rdf="http://www.w3.org/1999/02/22-rdf-syntax-ns#"
   xmlns:svg="http://www.w3.org/2000/svg"
   xmlns="http://www.w3.org/2000/svg"
   version="1.1"
   id="svg2997"
   width="120"
   height="120"
   viewBox="-0.5 -0.5 120 120"
   overflow="visible"
   enable-background="new -0.5 -0.5 200 200"
   xml:space="preserve"
   style="overflow:visible"><metadata
   id="metadata4648"><rdf:RDF><cc:Work
       rdf:about=""><dc:format>image/svg+xml</dc:format><dc:type
         rdf:resource="http://purl.org/dc/dcmitype/StillImage" /><dc:title></dc:title></cc:Work></rdf:RDF></metadata><defs
   id="defs4646" />
<path
   id="path85"
   d="m -2602.258,6374.622 c 19.127,26.489 46.371,47.744 80.988,44.707 -0.391,-32.709 -44.95,-51.716 -80.988,-44.707 z"
   style="fill:#ffffff" />
<path
   id="path93"
   d="m -2676.336,6088.478 c 4.082,-7.232 2.571,-17.81 3.831,-26.684 -9.019,4.635 -15.506,14.72 -24.551,18.641 2.6,5.355 14.287,5.366 20.72,8.043 z"
   style="fill:#ffffff" />
<path
   id="path95"
   d="m -2729.501,6033.081 -18.654,18.212 c 4.158,3.301 9.676,8.132 17.11,6.36 z"
   style="fill:#ffffff" />
<path
   id="path97"
   d="m -2773.439,6013.363 c -4.356,-0.363 -14.41,20.156 -18.785,19.857 l 14.762,8.728 c 5.085,0.305 2.324,-25.015 4.023,-28.585 z"
   style="fill:#ffffff" />
<path
   id="path99"
   d="m -2818.827,6004.062 4.736,-11.668 c -10.245,0.813 -15.511,20.68 -21.719,26.244 17.118,3.443 17.761,8.144 16.983,-14.576 z"
   style="fill:#ffffff" />
<path
   id="path101"
   d="m -2867.482,5977.158 -18.405,31.539 17.091,3.962 z"
   style="fill:#ffffff" />
<path
   id="path103"
   d="m -2914.495,5982.608 -21.059,16.139 c 21.197,8.295 22.411,11.406 21.059,-16.139 z"
   style="fill:#ffffff" />
<path
   id="path105"
   d="m -2965.309,5995.37 c -3.084,-9.172 -0.18,-20.226 0.396,-29.914 -4.952,9.422 -16.338,16.166 -17.745,27.299 4.847,4.019 11.54,2.238 17.349,2.615 z"
   style="fill:#ffffff" />
<g
   id="g4641"
   transform="translate(-42.322,14.972022)">
	
	
	
	
	
	
	
	
	
	
	
	
	
	
	
	
	
	<g
   id="g4668"
   transform="translate(1.2155,-15.085771)"><path
     d="M 70.165,21.946 C 62.09,27.292 49.432,38.35 43.382,44.795 c 1.491,0.208 3.068,-0.957 4.751,-1.179 l 11.635,-3.192 c -4.833,4.151 -15.001,11.47 -17.946,17.234 3.632,-1.309 11.254,-5.699 15.043,-6.059 -3.309,3.038 -10.214,8.801 -12.378,12.469 0.261,0.124 0.08,0.445 0.12,0.669 2.846,-1.635 9.763,-5.91 12.9,-6.199 -3.229,3.484 -9.169,10.193 -10.47,14.688 2.804,-1.913 9.856,-5.792 12.944,-6.969 -0.703,1.773 -2.262,3.09 -3.276,4.864 -1.399,2.453 -4.711,5.246 -4.834,8.161 2.46,-2.375 5.51,-4.474 8.571,-6.148 -1.365,2.947 -3.876,5.384 -4.561,8.892 2.007,-2.02 5.813,-3.071 8.399,-4.005 l -0.312,0.311 c -0.224,0.191 -3.136,2.335 -5.121,4.727 1.765,-0.114 0.449,-0.334 2.707,0.18 l -0.043,0.114 c -0.154,13.494 25.501,18.427 41.224,17.743 3.314,-6.419 1.525,-16.789 10.088,-21.247 5.764,-3.067 6.416,-4.742 13.068,-3.491 3.596,0.674 11.461,3.392 15.227,2.534 3.514,-2.033 5.221,-2.928 8.332,-5.37 3.01,-4.574 -23.988,-19.398 -2.164,-0.171 5.236,1.121 6.588,0.954 8.139,-1.376 0.693,-1.88 2.348,-6.877 3.859,-10.133 l 0.107,-1.76 c -1.467,-4.414 -1.111,-11.965 -1.852,-13.053 -4.842,-6.713 -22.34,-7.764 -30.256,-16.596 1.35,-4.384 -1.482,-7.997 -4.367,-10.738 -4.332,-3.187 -10.313,-1.722 -14.925,-0.399 -5.255,-1.099 -10.117,-2.986 -15.233,-4.48 -11.377,-1.19 -22.593,7.13 -22.593,7.13 z"
     id="path9" /><path
     style="fill:#cccccc"
     d="m 103.517,25.68 -3.771,1.438 c -0.453,-0.901 0.676,-1.757 1.126,-2.599 0.322,-0.616 1.247,-0.961 1.465,-1.705 -4.877,-0.786 -9.486,-3.178 -14.688,-2.354 -5.563,0.878 -8.802,3.003 -12.005,5.54 -1.617,0.885 -2.396,2.142 -3.968,3.201 -1.92,1.729 -2.755,5.176 -3.233,5.833 2.785,-1.206 5.587,-1.026 7.479,-1.663 -7.115,4.447 -8.358,13.134 -6.39,20.38 l -0.116,0.159 c -2.391,-1.429 -3.083,-4.065 -3.745,-6.371 -0.471,1.515 -0.538,3.44 -0.859,5.132 -0.764,-0.713 -1.184,-1.734 -1.61,-2.644 -0.799,7.668 2.938,13.913 7.521,19.966 3.068,4.058 -2.923,6.744 -1.512,11.838 l 7.206,-0.404 c 0.929,-0.348 0.64,-0.223 0.64,-0.223 -1.806,3.613 -11.365,6.352 -13.201,8.417 0.513,0.425 8.917,-2.164 11.991,-2.687 l -9.045,5.112 c 0.899,0.277 -0.028,3.311 1.946,3.023 12.508,3.713 26.597,8.866 28.792,3.488 1.831,-3.419 4.541,-9.21 4.122,-12.49 l 1.941,-2.949 c -2.59,0.643 -5.199,1.691 -7.202,3.823 -0.599,-1.256 0.342,-2.763 0.81,-3.951 1.343,-2.41 4.026,-3.686 6.151,-5.056 l -4.464,-1.976 c -2.25,-3.864 -6.523,-7.047 -6.639,-11.586 l 1.057,0.36 c 4.069,4.621 9.854,8.371 15.647,8.639 -3.943,-0.338 16.471,-2.743 15.271,-4.472 2.17,3.121 8.729,4.432 13.52,6.071 2.201,-0.792 3.162,-0.566 4.816,-2.057 -0.705,-0.765 -1.795,-1.39 -2.844,-1.787 -6.295,-1.738 -21.162,-4.796 -24.365,-10.986 -0.604,2.637 1.838,4.812 4.566,7.061 l -5.873,-0.826 c -10.331,-4.782 -9.083,-12.984 -6.813,-20.78 l 0.785,6.508 2.025,3.548 c 3.851,-6.966 1.835,-6.1 -5.898,-15.494 l 5.832,2.228 c 2.663,2.142 7.04,5.845 10.921,8.417 10.453,6.845 15.625,11.381 28.891,12.311 l 4.092,0.908 c 2.896,-7.59 -2.719,-14.597 -1.021,-3.989 -2.166,-2.631 -4.283,-5.066 -3.842,-6.439 -0.76,-1.147 3.143,-4.014 2.811,-5.319 -3.83,-3.894 -20.389,-5.984 -29.381,-14.907 -0.264,1.492 4.158,5.354 4.924,6.683 -8.918,0.088 -14.174,-2.651 -15.127,-5.542 -0.195,-0.481 0.047,-2.623 0.998,-3.313 1.287,-0.672 2.541,-1.693 4.02,-1.83 -2.316,-1.891 -5.25,0.643 -7.302,1.788 -1.594,2.737 0.889,5.788 1.202,8.014 -2.175,-0.549 -5.111,-4.378 -5.471,-6.782 -3.306,0.362 -6.34,-0.065 -8.881,-1.974 2.243,-0.492 4.56,-1.331 6.906,-1.755 6.143,-1.34 12.598,-7.655 18.803,-2.72 l -2.889,-3.672 c -5.791,-0.61 -10.827,2.078 -16.122,3.416 z"
     id="path11" /><path
     d="m 83.254,28.459 c -1.649,1.924 -3.302,3.85 -3.687,6.437 l 0.369,0.434 c 1.102,-1.326 2.753,-2.437 4.274,-3.207 0.002,2.726 1.76,5.399 4.11,6.713 l 0.395,0.028 c -0.498,-2.879 -0.166,-6.399 0.96,-8.998 1.793,-1.508 4.151,-2.106 5.668,-3.692 -3.797,-0.888 -7.411,-0.136 -10.658,1.1 z"
     id="path13" /><path
     style="fill:#ffffff"
     d="m 121.379,36.471 c -1.561,-2.157 -3.777,-3.888 -6.594,-3.642 0.029,2.662 3.658,4.214 6.594,3.642 z"
     id="path15" /><path
     d="m 98.854,36.815 c -2.445,0.187 -4.736,0.622 -7.041,1.224 1.017,0.937 2.302,1.252 3.266,2.129 -3.017,1.137 -6.176,1.861 -8.813,4.186 l 0.546,0.325 c 4.878,-1.015 10.645,-0.929 15.732,0.16 l 0.294,-0.212 -2.948,-5.361 4.533,-0.981 c -2.405,-2.249 -5.156,-4.46 -8.322,-5.422 0.484,1.308 1.816,2.616 2.753,3.952 z"
     id="path17" /><path
     d="m 116.564,42.189 c 2.406,0.445 5.064,0.503 7.357,0.074 -3.787,-1.932 -8.625,-1.552 -11.639,-4.944 0.57,1.78 1.804,4.649 4.282,4.87 z"
     id="path19" /><path
     d="m 80.567,55.828 c 0.943,3.023 -2.23,6.707 0.312,9.485 2.165,2.522 4.81,4.614 7.354,6.464 l -0.225,-0.943 c -2.266,-2.647 -4.349,-5.569 -5.396,-8.716 2.656,0.928 5.463,2.216 8.496,2.646 -3.416,-5.104 -9.678,-9.984 -7.319,-16.97 0.129,-1.154 1.655,-2.041 1.271,-3.113 -3.57,2.727 -5.064,6.754 -4.493,11.147 z"
     id="path21" /><path
     style="fill:#ffffff"
     d="m 127.412,59.77 c -0.334,0.589 -0.213,1.45 -0.316,2.174 0.738,-0.379 1.264,-1.199 2,-1.518 -0.213,-0.438 -1.162,-0.44 -1.684,-0.656 z"
     id="path23" /><path
     style="fill:#ffffff"
     d="m 131.738,64.284 1.518,-1.487 c -0.336,-0.267 -0.785,-0.661 -1.395,-0.518 z"
     id="path25" /><path
     style="fill:#ffffff"
     d="m 135.316,65.887 c 0.355,0.026 1.174,-1.643 1.531,-1.618 l -1.203,-0.711 c -0.415,-0.026 -0.189,2.035 -0.328,2.329 z"
     id="path27" /><path
     style="fill:#ffffff"
     d="m 139.012,66.644 -0.385,0.95 c 0.836,-0.067 1.264,-1.684 1.766,-2.138 -1.391,-0.279 -1.444,-0.663 -1.381,1.188 z"
     id="path29" /><path
     style="fill:#ffffff"
     d="m 142.977,68.834 1.498,-2.569 -1.395,-0.32 z"
     id="path31" /><path
     style="fill:#ffffff"
     d="m 146.801,68.39 1.715,-1.312 c -1.727,-0.678 -1.825,-0.931 -1.715,1.312 z"
     id="path33" /><path
     style="fill:#ffffff"
     d="m 150.938,67.35 c 0.254,0.748 0.02,1.647 -0.031,2.436 0.404,-0.766 1.332,-1.313 1.445,-2.221 -0.395,-0.332 -0.94,-0.183 -1.414,-0.215 z"
     id="path35" /><path
     d="m 99.399,96.021 c 0.547,1.031 0.572,2.285 1.119,3.315 1.295,-2.793 1.147,-6.148 -0.533,-8.659 -2.923,-1.288 -5.745,-2.625 -8.264,-4.671 1.047,3.571 4.471,7.507 7.678,10.015 z"
     id="path37" /><path
     d="m 117.387,36.775 c -0.953,-0.248 -1.51,-1.317 -1.25,-2.393 0.268,-1.079 1.252,-1.75 2.207,-1.502 0.955,0.245 1.512,1.318 1.25,2.393 -0.266,1.075 -1.254,1.748 -2.207,1.502 z"
     id="path71" /><path
     d="m 98.356,103.161 2.835,-2.31 c -2.758,-1.791 -7.426,-5.004 -9.95,-7.387 1.983,4.125 2.043,8.688 7.115,9.697 z"
     id="path75" /><path
     d="m 57.859,84.722 c 11.552,15.175 27.262,21.19 46.412,19.542 l -1.629,-3.542 C 85.611,101.353 71.432,97.13 61.767,83.134 Z"
     id="path2225" /></g>
	
	
	
	
	
	
	
	
	
	
	
</g>
</svg>